<?xml version="1.0" standalone="no"?>
<!DOCTYPE svg PUBLIC "-//W3C//DTD SVG 20010904//EN"
 "http://www.w3.org/TR/2001/REC-SVG-20010904/DTD/svg10.dtd">
<svg version="1.0" xmlns="http://www.w3.org/2000/svg"
 width="1164.000000pt" height="566.000000pt" viewBox="0 0 1164.000000 566.000000"
 preserveAspectRatio="xMidYMid meet">

<g transform="translate(0.000000,566.000000) scale(0.100000,-0.100000)"
fill="#000000" stroke="none">
<path d="M0 2830 l0 -2830 5820 0 5820 0 0 2830 0 2830 -5820 0 -5820 0 0
-2830z m1640 1340 c0 -5 9 -10 20 -10 11 0 20 -4 20 -10 0 -5 9 -10 20 -10 11
0 20 5 20 10 0 6 9 10 20 10 11 0 20 5 20 10 0 6 103 10 290 10 187 0 290 -4
290 -10 0 -5 9 -10 20 -10 11 0 20 -4 20 -10 0 -5 9 -10 20 -10 11 0 20 5 20
10 0 6 12 10 26 10 14 0 23 4 19 10 -4 7 93 10 284 10 187 0 291 -4 291 -10 0
-5 9 -10 20 -10 11 0 20 -4 20 -10 0 -5 9 -10 20 -10 13 0 20 -7 20 -20 0 -11
5 -20 10 -20 7 0 10 -165 10 -475 l0 -476 130 -129 130 -129 0 -81 c0 -81 11
-110 40 -110 20 0 40 -28 40 -54 0 -14 5 -26 10 -26 7 0 10 -152 10 -435 0
-283 -3 -435 -10 -435 -5 0 -10 -5 -10 -10 0 -6 -11 -22 -25 -35 l-24 -25
-706 0 c-463 0 -705 3 -705 10 0 6 -9 10 -20 10 -13 0 -20 7 -20 20 0 11 -4
20 -10 20 -6 0 -10 70 -10 190 l0 190 -108 0 c-96 0 -109 2 -122 20 -14 20
-47 29 -35 10 3 -5 -3 -10 -14 -10 -12 0 -21 -4 -21 -10 0 -6 -110 -10 -310
-10 -200 0 -310 4 -310 10 0 6 -10 10 -22 10 -15 0 -19 3 -11 8 9 6 7 12 -7
22 -11 8 -20 20 -20 28 0 7 -4 10 -10 7 -7 -4 -10 310 -10 934 0 621 3 941 10
941 6 0 10 7 10 15 0 20 45 65 65 65 8 0 15 5 15 10 0 6 103 10 290 10 187 0
290 -4 290 -10z m4925 -505 c19 -19 35 -41 35 -50 0 -8 5 -15 10 -15 6 0 10
-22 10 -50 0 -27 -4 -50 -10 -50 -5 0 -10 -7 -10 -15 0 -9 -16 -31 -35 -50
-33 -33 -38 -35 -105 -35 -67 0 -72 2 -105 35 -19 19 -35 41 -35 50 0 8 -4 15
-10 15 -5 0 -10 23 -10 50 0 28 5 50 10 50 6 0 10 7 10 15 0 9 15 31 33 50 30
32 35 34 105 34 70 1 74 0 107 -34z m3135 -35 c0 -5 7 -10 15 -10 20 0 65 -45
65 -65 0 -8 5 -15 10 -15 6 0 10 -13 10 -30 0 -16 5 -30 10 -30 6 0 10 -9 10
-20 0 -11 5 -20 10 -20 6 0 10 -11 10 -24 0 -14 5 -28 10 -31 6 -3 10 -15 10
-26 0 -10 5 -19 10 -19 6 0 10 -9 10 -20 0 -11 5 -20 10 -20 6 0 10 -13 10
-30 0 -16 5 -30 10 -30 6 0 10 -9 10 -19 0 -11 4 -21 10 -23 5 -1 11 -15 12
-30 1 -16 6 -28 10 -28 4 0 8 -9 8 -20 0 -11 5 -20 10 -20 6 0 10 -9 10 -20 0
-11 5 -20 10 -20 6 0 10 -13 10 -30 0 -16 5 -30 10 -30 6 0 10 -9 10 -20 0
-11 5 -20 10 -20 6 0 10 -9 10 -20 0 -11 5 -20 10 -20 6 0 10 -13 10 -30 0
-16 5 -30 10 -30 6 0 10 -9 10 -20 0 -11 5 -20 10 -20 6 0 10 -13 10 -30 0
-16 5 -30 10 -30 6 0 10 -9 10 -20 0 -11 5 -20 10 -20 6 0 10 -9 10 -20 0 -11
5 -20 10 -20 6 0 10 -13 10 -30 0 -16 5 -30 10 -30 6 0 10 -9 10 -20 0 -11 5
-20 10 -20 6 0 10 -13 10 -30 0 -16 5 -30 10 -30 6 0 10 -9 10 -20 0 -11 5
-20 10 -20 6 0 10 -9 10 -20 0 -11 5 -20 10 -20 6 0 10 -13 10 -30 0 -16 5
-30 10 -30 6 0 10 -7 10 -15 0 -20 65 -85 85 -85 8 0 15 -4 15 -10 0 -5 18
-10 40 -10 l40 0 0 -40 0 -40 -346 0 c-286 0 -348 2 -360 14 -20 20 -18 33 11
61 24 25 55 33 55 15 0 -15 70 -12 86 4 16 17 20 126 4 126 -5 0 -10 9 -10 20
0 11 -4 20 -10 20 -5 0 -10 14 -10 30 0 17 -4 30 -10 30 -5 0 -10 9 -10 20 0
11 -4 20 -10 20 -5 0 -10 9 -10 20 0 11 -4 20 -10 20 -5 0 -10 9 -10 20 0 19
-7 20 -256 20 -267 0 -284 -3 -284 -44 0 -9 -4 -16 -10 -16 -5 0 -10 -9 -10
-20 0 -11 -4 -20 -10 -20 -5 0 -10 -13 -10 -30 0 -16 -4 -30 -10 -30 -5 0 -10
-9 -10 -20 0 -11 -4 -20 -10 -20 -5 0 -10 -13 -10 -30 0 -16 -4 -30 -10 -30
-15 0 -12 -70 4 -86 10 -9 37 -14 80 -14 64 0 66 -1 66 -26 0 -51 -13 -54
-220 -54 -153 0 -194 3 -206 14 -31 31 -4 66 50 66 20 0 36 5 36 10 0 6 7 10
15 10 20 0 65 45 65 65 0 8 5 15 10 15 6 0 10 9 10 20 0 11 5 20 10 20 6 0 10
9 10 20 0 11 5 20 10 20 6 0 10 14 10 30 0 17 5 30 10 30 6 0 10 9 10 20 0 11
5 20 10 20 6 0 10 9 10 20 0 11 5 20 10 20 6 0 10 14 10 30 0 17 5 30 10 30 6
0 10 9 10 20 0 11 5 20 10 20 6 0 10 14 10 30 0 17 5 30 10 30 6 0 10 9 10 20
0 11 5 20 10 20 6 0 10 9 10 19 0 11 5 23 10 26 6 3 10 17 10 31 0 13 5 24 10
24 6 0 10 9 10 20 0 11 5 20 10 20 6 0 10 14 10 30 0 17 5 30 10 30 6 0 10 9
10 20 0 11 5 20 10 20 6 0 10 9 10 20 0 11 5 20 10 20 6 0 10 14 10 30 0 17 5
30 10 30 6 0 10 9 10 20 0 11 5 20 10 20 6 0 10 14 10 30 0 17 5 30 10 30 6 0
10 9 10 20 0 11 5 20 10 20 6 0 10 9 10 20 0 11 4 20 8 20 4 0 9 12 10 28 1
15 7 29 12 30 6 2 10 12 10 23 0 10 5 19 10 19 6 0 10 14 10 30 0 17 5 30 10
30 6 0 10 9 10 20 0 11 5 20 10 20 6 0 10 12 10 26 0 15 9 35 21 45 11 9 20
20 20 23 -3 21 1 26 19 26 11 0 20 5 20 10 0 6 9 10 20 10 11 0 20 -4 20 -10z
m-1580 -20 c0 -5 18 -10 40 -10 22 0 40 -4 40 -10 0 -5 14 -10 31 -10 17 0 28
-4 24 -10 -4 -6 8 -10 29 -10 20 0 36 -4 36 -10 0 -5 23 -10 50 -10 l50 0 0
-160 0 -160 -40 0 -40 0 0 40 c0 22 -4 40 -10 40 -5 0 -10 13 -10 28 0 16 -8
34 -20 42 -11 8 -20 20 -20 28 0 18 -66 82 -85 82 -8 0 -15 5 -15 10 0 6 -9
10 -20 10 -11 0 -20 5 -20 10 0 6 -13 10 -30 10 -16 0 -30 5 -30 10 0 6 -33
10 -80 10 -47 0 -80 -4 -80 -10 0 -5 -13 -10 -30 -10 -16 0 -30 -4 -30 -10 0
-5 -7 -10 -15 -10 -26 0 -85 -66 -85 -95 0 -14 -4 -25 -10 -25 -5 0 -10 -22
-10 -50 0 -27 5 -50 10 -50 6 0 10 -9 10 -20 0 -11 5 -20 10 -20 6 0 10 -9 10
-20 0 -13 7 -20 18 -20 10 0 24 -9 32 -20 8 -11 23 -20 33 -20 10 0 15 -4 12
-10 -4 -6 5 -10 19 -10 14 0 26 -4 26 -10 0 -5 9 -10 20 -10 11 0 20 -4 20
-10 0 -5 9 -10 20 -10 11 0 20 -4 20 -10 0 -5 14 -10 30 -10 17 0 30 -4 30
-10 0 -5 9 -10 20 -10 11 0 20 -4 20 -10 0 -5 9 -10 20 -10 11 0 20 -4 20 -10
0 -5 9 -10 20 -10 11 0 20 -4 20 -10 0 -5 9 -10 20 -10 11 0 20 -4 20 -10 0
-5 9 -10 20 -10 11 0 20 -4 20 -10 0 -5 8 -10 18 -10 10 0 24 -9 32 -20 8 -11
21 -20 28 -20 16 0 94 -79 88 -89 -3 -4 4 -14 15 -21 11 -8 19 -26 19 -42 0
-15 5 -28 10 -28 6 0 10 -50 10 -130 0 -80 -4 -130 -10 -130 -5 0 -10 -13 -10
-30 0 -16 -4 -30 -10 -30 -5 0 -10 -8 -10 -18 0 -10 -9 -24 -20 -32 -11 -8
-20 -20 -20 -28 0 -17 -65 -82 -82 -82 -8 0 -20 -9 -28 -20 -8 -11 -22 -20
-32 -20 -10 0 -18 -4 -18 -10 0 -5 -9 -10 -20 -10 -11 0 -20 -4 -20 -10 0 -5
-18 -10 -40 -10 -22 0 -40 -4 -40 -10 0 -6 -60 -10 -160 -10 -100 0 -160 4
-160 10 0 6 -18 10 -40 10 -22 0 -40 5 -40 10 0 6 -18 10 -40 10 -22 0 -40 5
-40 10 0 6 -32 10 -76 10 -52 0 -80 4 -90 14 -16 17 -19 66 -4 66 6 0 10 43
10 110 0 67 -4 110 -10 110 -5 0 -10 25 -10 56 0 62 16 87 52 82 19 -2 24 -10
26 -40 2 -21 7 -38 13 -38 5 0 9 -13 9 -30 0 -16 5 -30 10 -30 6 0 10 -13 10
-30 0 -16 5 -30 10 -30 6 0 10 -7 10 -15 0 -20 125 -145 145 -145 8 0 15 -4
15 -10 0 -5 9 -10 20 -10 11 0 20 -4 20 -10 0 -5 23 -10 50 -10 28 0 50 -4 50
-10 0 -5 23 -10 50 -10 28 0 50 5 50 10 0 6 14 10 30 10 17 0 30 5 30 10 0 6
7 10 15 10 26 0 105 86 105 115 0 14 5 25 10 25 6 0 10 27 10 60 0 33 -4 60
-8 60 -4 0 -9 11 -10 25 -2 29 -102 135 -127 135 -8 0 -15 5 -15 10 0 6 -13
10 -30 10 -16 0 -30 5 -30 10 0 6 -9 10 -20 10 -11 0 -20 5 -20 10 0 6 -9 10
-20 10 -11 0 -20 5 -20 10 0 6 -13 10 -30 10 -16 0 -30 5 -30 10 0 6 -9 10
-20 10 -11 0 -20 5 -20 10 0 6 -9 10 -20 10 -11 0 -20 5 -20 10 0 6 -13 10
-28 10 -16 0 -34 8 -42 20 -8 11 -21 20 -30 20 -9 0 -22 9 -30 20 -8 11 -20
20 -28 20 -17 0 -62 45 -62 62 0 8 -9 20 -20 28 -12 8 -20 26 -20 42 0 15 -4
28 -10 28 -6 0 -10 50 -10 130 0 80 4 130 10 130 6 0 10 9 10 20 0 11 5 20 10
20 6 0 10 9 10 20 0 11 5 20 10 20 6 0 10 7 10 15 0 20 85 105 105 105 8 0 15
5 15 10 0 6 9 10 20 10 11 0 20 5 20 10 0 6 9 10 20 10 11 0 20 5 20 10 0 6
14 10 30 10 17 0 30 5 30 10 0 6 60 10 160 10 100 0 160 -4 160 -10z m-3240
-20 c0 -6 27 -10 60 -10 33 0 60 -4 60 -10 0 -5 18 -10 40 -10 22 0 40 -4 40
-10 0 -5 14 -10 30 -10 17 0 30 -4 30 -10 0 -5 9 -10 20 -10 11 0 20 -4 20
-10 0 -5 8 -10 18 -10 10 0 24 -9 32 -20 8 -11 19 -20 25 -20 17 0 85 -66 85
-82 0 -7 9 -20 20 -28 11 -8 20 -22 20 -32 0 -10 5 -18 10 -18 6 0 10 -9 10
-20 0 -11 5 -20 10 -20 6 0 10 -9 10 -20 0 -11 5 -20 10 -20 6 0 10 -13 10
-29 0 -17 5 -33 10 -36 6 -3 10 -35 10 -71 0 -38 4 -64 11 -64 7 0 8 -40 5
-122 -7 -171 -16 -258 -27 -258 -5 0 -9 -13 -9 -30 0 -16 -4 -30 -10 -30 -5 0
-10 -13 -10 -30 0 -16 -4 -30 -10 -30 -5 0 -10 -8 -10 -18 0 -10 -9 -24 -20
-32 -11 -8 -20 -20 -20 -27 0 -17 -126 -143 -143 -143 -7 0 -19 -9 -27 -20 -8
-11 -22 -20 -32 -20 -10 0 -18 -4 -18 -10 0 -5 -13 -10 -30 -10 -16 0 -30 -4
-30 -10 0 -5 -13 -10 -30 -10 -16 0 -30 -4 -30 -10 0 -5 -22 -10 -50 -10 -27
0 -50 -4 -50 -10 0 -6 -135 -10 -386 -10 -321 0 -388 2 -400 14 -33 34 -4 66
60 66 39 0 46 3 46 20 0 11 5 20 10 20 7 0 10 202 10 586 0 587 0 587 -21 605
-14 12 -30 17 -45 13 -16 -4 -30 1 -48 20 -29 28 -32 40 -13 61 10 12 75 14
380 15 238 0 367 -4 367 -10z m1726 -404 c12 -12 14 -89 14 -470 l0 -456 50 0
50 0 0 -40 0 -40 -260 0 -260 0 0 40 0 40 50 0 50 0 0 416 c0 460 2 444 -64
444 -32 0 -36 3 -36 25 0 52 10 54 208 55 146 0 186 -3 198 -14z"/>
<path d="M1053 4085 c-10 -11 -13 -213 -13 -935 l0 -921 25 -24 24 -25 261 0
261 0 24 25 25 24 0 921 c0 785 -2 924 -14 936 -21 21 -575 20 -593 -1z m347
-75 c0 -5 11 -10 24 -10 33 0 116 -83 116 -116 0 -13 5 -24 10 -24 6 0 10 -22
10 -50 0 -27 -4 -50 -10 -50 -5 0 -10 -11 -10 -25 0 -26 -59 -95 -80 -95 -6 0
-8 -4 -5 -10 4 -6 -7 -10 -24 -10 -17 0 -31 -4 -31 -10 0 -5 -22 -10 -50 -10
-27 0 -50 5 -50 10 0 6 -11 10 -25 10 -35 0 -115 80 -115 115 0 14 -4 25 -10
25 -5 0 -10 23 -10 50 0 28 5 50 10 50 6 0 10 14 10 31 0 17 4 28 10 24 6 -3
10 -1 10 6 0 20 73 79 97 79 13 0 23 5 23 10 0 6 23 10 50 10 28 0 50 -4 50
-10z m140 -500 c0 -5 9 -10 20 -10 13 0 20 -7 20 -20 0 -11 5 -20 10 -20 7 0
10 -145 10 -415 l0 -416 -25 -24 c-24 -25 -25 -25 -225 -25 -200 0 -201 0
-225 25 l-25 24 0 421 c0 278 3 419 10 415 6 -3 10 3 10 14 0 14 6 21 20 21
11 0 20 5 20 10 0 6 70 10 190 10 120 0 190 -4 190 -10z"/>
<path d="M1290 3930 c13 -8 12 -10 -3 -10 -23 0 -47 -23 -47 -44 0 -9 -4 -16
-10 -16 -5 0 -10 -22 -10 -50 0 -27 5 -50 10 -50 6 0 10 -7 10 -16 0 -20 39
-56 51 -48 5 3 9 0 9 -5 0 -7 23 -11 56 -11 34 0 53 4 49 10 -3 6 1 10 10 10
21 0 45 24 45 44 0 9 5 16 10 16 6 0 10 23 10 50 0 28 -4 50 -10 50 -5 0 -10
7 -10 16 0 20 -24 44 -44 44 -9 0 -16 5 -16 10 0 6 -27 10 -62 10 -45 0 -59
-3 -48 -10z"/>
<path d="M1180 3380 l0 -60 170 0 170 0 0 60 0 60 -170 0 -170 0 0 -60z"/>
<path d="M1180 2950 l0 -310 170 0 170 0 0 310 0 310 -170 0 -170 0 0 -310z
m266 196 c8 -8 14 -20 14 -26 0 -29 -29 -40 -110 -40 -99 0 -134 23 -97 65 17
20 173 21 193 1z m14 -196 l0 -30 -110 0 -110 0 0 30 0 30 110 0 110 0 0 -30z
m-14 -144 c8 -8 14 -20 14 -26 0 -29 -29 -40 -110 -40 -99 0 -134 23 -97 65
17 20 173 21 193 1z"/>
<path d="M1753 4085 c-10 -11 -13 -213 -13 -935 l0 -921 25 -24 c22 -23 32
-25 110 -25 l85 0 0 200 0 200 -55 0 c-46 0 -60 4 -80 25 l-25 24 0 416 c0
270 3 415 10 415 6 0 10 9 10 20 0 13 7 20 20 20 11 0 20 5 20 10 0 6 70 10
190 10 120 0 190 -4 190 -10 0 -5 7 -10 16 -10 38 0 44 -23 44 -180 0 -98 4
-149 10 -145 6 3 10 1 10 -4 0 -6 9 -11 20 -11 20 0 20 7 20 456 0 381 -2 458
-14 470 -21 21 -575 20 -593 -1z m347 -75 c0 -5 11 -10 25 -10 29 0 115 -79
115 -105 0 -8 5 -15 10 -15 6 0 10 -30 10 -70 0 -40 -4 -70 -10 -70 -5 0 -10
-7 -10 -15 0 -26 -86 -105 -115 -105 -14 0 -25 -4 -25 -10 0 -5 -22 -10 -50
-10 -27 0 -50 5 -50 10 0 6 -9 10 -20 10 -11 0 -20 5 -20 10 0 6 -7 10 -15 10
-20 0 -65 45 -65 65 0 8 -4 15 -10 15 -5 0 -10 14 -10 30 0 17 -4 30 -10 30
-5 0 -10 14 -10 30 0 17 5 30 10 30 6 0 10 14 10 30 0 17 5 30 10 30 6 0 10 7
10 15 0 20 45 65 65 65 8 0 15 5 15 10 0 6 9 10 20 10 11 0 20 5 20 10 0 6 23
10 50 10 28 0 50 -4 50 -10z"/>
<path d="M2000 3930 c0 -5 -7 -10 -16 -10 -20 0 -44 -24 -44 -44 0 -9 -4 -16
-10 -16 -5 0 -10 -22 -10 -50 0 -27 5 -50 10 -50 6 0 10 -7 10 -16 0 -20 24
-44 44 -44 9 0 16 -4 16 -10 0 -5 23 -10 50 -10 28 0 50 5 50 10 0 6 7 10 15
10 9 0 27 11 40 25 21 20 25 34 25 85 0 56 -3 63 -35 95 -31 32 -40 35 -90 35
-30 0 -55 -4 -55 -10z"/>
<path d="M2463 4075 l-23 -24 0 -434 c0 -451 1 -457 42 -457 16 0 18 12 18
140 0 87 4 140 10 140 6 0 10 7 10 16 0 18 23 44 40 44 6 0 8 5 5 10 -4 7 62
10 190 10 195 0 196 0 220 -25 24 -23 25 -29 25 -165 0 -142 7 -170 40 -170
39 0 40 13 40 460 l0 431 -25 24 -24 25 -273 -1 -273 0 -22 -24z m357 -65 c0
-5 7 -10 16 -10 9 0 25 -9 35 -21 9 -11 20 -20 23 -20 21 3 26 -1 26 -19 0
-11 5 -20 10 -20 6 0 10 -9 10 -20 0 -11 5 -20 10 -20 6 0 10 -30 10 -70 0
-40 -4 -70 -10 -70 -5 0 -10 -9 -10 -20 0 -11 -4 -20 -10 -20 -5 0 -10 -9 -10
-20 0 -13 -7 -20 -18 -20 -10 0 -24 -9 -32 -20 -8 -12 -26 -20 -42 -20 -15 0
-28 -4 -28 -10 0 -5 -22 -10 -50 -10 -27 0 -50 5 -50 10 0 6 -9 10 -20 10 -11
0 -20 5 -20 10 0 6 -7 10 -15 10 -20 0 -65 45 -65 65 0 8 -4 15 -10 15 -6 0
-10 37 -10 90 0 53 4 90 10 90 6 0 10 7 10 15 0 9 11 27 25 40 13 14 31 25 40
25 8 0 15 5 15 10 0 6 9 10 20 10 11 0 20 5 20 10 0 6 27 10 60 10 33 0 60 -4
60 -10z"/>
<path d="M2673 3905 c-18 -19 -33 -41 -33 -50 0 -8 -4 -15 -10 -15 -5 0 -10
-13 -10 -30 0 -16 5 -30 10 -30 6 0 10 -9 10 -20 0 -11 5 -20 11 -20 5 0 7 -4
4 -10 -3 -5 0 -10 7 -10 8 0 20 -9 28 -20 11 -16 26 -20 68 -20 47 0 56 4 87
35 19 19 35 41 35 50 0 8 5 15 10 15 6 0 10 14 10 30 0 17 -4 30 -10 30 -5 0
-10 7 -10 15 0 9 -16 31 -35 50 -31 31 -40 35 -87 34 -47 0 -57 -4 -85 -34z"/>
<path d="M1880 3380 l0 -60 166 0 c189 0 194 2 194 74 l0 46 -180 0 -180 0 0
-60z"/>
<path d="M2580 3380 l0 -60 166 0 c189 0 194 2 194 74 l0 46 -180 0 -180 0 0
-60z"/>
<path d="M1880 2950 l0 -310 40 0 40 0 0 91 c0 57 4 88 10 84 6 -3 10 -1 10 5
0 16 47 60 65 60 13 0 15 18 15 115 0 110 1 117 25 140 19 20 34 25 75 25 56
0 80 15 80 50 0 45 -18 50 -194 50 l-166 0 0 -310z"/>
<path d="M2580 3210 l0 -50 166 0 c176 0 194 5 194 50 0 45 -18 50 -194 50
l-166 0 0 -50z"/>
<path d="M2133 3085 c-9 -9 -13 -47 -13 -110 l0 -95 170 0 c107 0 170 -4 170
-10 0 -5 7 -10 15 -10 19 0 65 -44 65 -62 0 -8 9 -20 20 -28 11 -8 20 -20 20
-28 0 -40 14 -42 380 -42 393 0 380 -2 380 70 0 62 -14 70 -120 70 -83 0 -93
2 -115 25 -23 22 -25 32 -25 115 0 66 -4 95 -14 106 -22 21 -915 20 -933 -1z"/>
<path d="M3140 2974 c0 -58 16 -74 74 -74 60 0 60 17 1 75 -58 59 -75 59 -75
-1z"/>
<path d="M2040 2280 l0 -520 690 0 690 0 0 430 c0 296 -3 430 -11 430 -5 0 -7
5 -4 10 4 7 -137 10 -415 10 l-421 0 -24 25 c-14 13 -25 30 -25 37 0 8 -9 20
-20 28 -11 8 -20 20 -20 28 0 38 -22 42 -234 42 l-206 0 0 -520z m740 270 c0
-5 9 -10 20 -10 11 0 20 -4 20 -10 0 -5 14 -10 30 -10 17 0 30 -4 30 -10 0 -6
27 -10 60 -10 33 0 60 -4 60 -10 0 -5 14 -10 30 -10 l30 0 0 -170 c0 -107 -4
-170 -10 -170 -5 0 -10 -13 -10 -30 0 -16 -4 -30 -10 -30 -5 0 -10 -9 -10 -20
0 -11 -4 -20 -10 -20 -5 0 -10 -9 -10 -20 0 -11 -4 -20 -10 -20 -5 0 -10 -7
-10 -16 0 -22 -27 -48 -33 -31 -3 6 -6 2 -6 -10 -1 -14 -7 -23 -17 -23 -9 0
-29 -13 -44 -30 -15 -16 -35 -30 -44 -30 -9 0 -16 -4 -16 -10 0 -5 -13 -10
-30 -10 -16 0 -30 -4 -30 -10 0 -5 -13 -10 -29 -10 -17 0 -33 5 -36 10 -3 6
-17 10 -31 10 -13 0 -24 5 -24 10 0 6 -8 10 -18 10 -10 0 -24 9 -32 20 -8 11
-20 20 -28 20 -17 0 -82 65 -82 82 0 8 -9 20 -20 28 -11 8 -20 22 -20 32 0 10
-4 18 -10 18 -5 0 -10 18 -10 40 0 22 -4 40 -10 40 -6 0 -10 63 -10 170 l0
170 30 0 c17 0 30 5 30 10 0 6 27 10 60 10 33 0 60 4 60 10 0 6 12 10 26 10
14 0 23 4 19 10 -4 6 7 10 24 10 17 0 31 5 31 10 0 6 23 10 50 10 28 0 50 -4
50 -10z"/>
<path d="M2720 2490 c0 -5 -9 -10 -20 -10 -11 0 -20 -4 -20 -10 0 -5 -13 -10
-30 -10 -16 0 -30 -4 -30 -10 0 -5 -18 -10 -41 -10 -24 0 -38 -4 -34 -10 4 -6
-7 -10 -25 -10 -52 0 -60 -17 -60 -124 0 -57 4 -96 10 -96 6 0 10 -18 10 -40
0 -22 5 -40 10 -40 6 0 10 -13 10 -28 0 -16 8 -34 20 -42 11 -8 20 -20 20 -28
0 -7 5 -10 10 -7 9 6 14 -8 11 -27 0 -5 8 -8 20 -8 11 0 17 -4 14 -10 -3 -5 0
-10 7 -10 8 0 20 -9 28 -20 8 -11 22 -20 32 -20 10 0 18 -4 18 -10 0 -5 18
-10 40 -10 22 0 40 5 40 10 0 6 9 10 20 10 11 0 20 5 20 10 0 6 7 10 15 10 20
0 125 105 125 125 0 8 5 15 10 15 6 0 10 9 10 20 0 11 5 20 10 20 6 0 10 27
10 60 0 33 4 60 10 60 6 0 10 32 10 76 0 87 -10 104 -64 104 -20 0 -36 5 -36
10 0 6 -13 10 -30 10 -16 0 -30 5 -30 10 0 6 -13 10 -30 10 -16 0 -30 5 -30
10 0 6 -12 10 -26 10 -14 0 -23 4 -19 10 3 6 1 10 -4 10 -6 0 -11 -4 -11 -10z
m140 -216 c0 -16 -11 -37 -30 -54 -16 -15 -30 -33 -32 -40 -5 -21 -86 -100
-103 -100 -8 0 -15 5 -15 10 0 6 -7 10 -16 10 -20 0 -44 24 -44 44 0 9 -4 16
-10 16 -5 0 -10 14 -10 30 0 26 4 30 26 30 15 0 35 -9 45 -21 l18 -21 58 60
c43 45 65 61 86 61 23 1 27 -3 27 -25z"/>
<path d="M9533 3205 c-7 -8 -13 -26 -13 -40 0 -14 -4 -25 -10 -25 -5 0 -10 -9
-10 -20 0 -11 -4 -20 -10 -20 -5 0 -10 -13 -10 -30 0 -16 -4 -30 -10 -30 -5 0
-10 -9 -10 -20 0 -11 -4 -20 -10 -20 -5 0 -10 -9 -10 -20 0 -11 -4 -20 -10
-20 -5 0 -10 -13 -10 -30 0 -16 -4 -30 -10 -30 -5 0 -10 -9 -10 -20 0 -11 -4
-20 -10 -20 -5 0 -10 -13 -10 -30 0 -16 -4 -30 -10 -30 -5 0 -10 -9 -10 -20 0
-11 -4 -20 -10 -20 -5 0 -10 -9 -10 -20 0 -19 7 -20 210 -20 l210 0 0 30 c0
17 -4 30 -10 30 -5 0 -10 9 -10 20 0 11 -4 20 -10 20 -5 0 -10 14 -10 30 0 17
-4 30 -10 30 -5 0 -10 9 -10 20 0 11 -4 20 -10 20 -5 0 -10 14 -10 31 0 17 -4
28 -10 24 -6 -4 -10 5 -10 19 0 14 -4 26 -10 26 -5 0 -10 9 -10 20 0 11 -4 20
-10 20 -5 0 -10 14 -10 30 0 17 -4 30 -10 30 -5 0 -10 9 -10 20 0 11 -4 20
-10 20 -5 0 -10 7 -10 16 0 13 -23 45 -32 44 -2 -1 -9 -7 -15 -15z"/>
<path d="M4610 3510 c0 -5 -7 -10 -15 -10 -13 0 -15 -74 -15 -610 0 -546 2
-610 16 -610 8 0 13 -4 10 -8 -3 -5 13 -9 35 -10 22 -2 39 2 39 8 0 6 31 10
80 10 47 0 80 4 80 10 0 6 14 10 30 10 17 0 30 5 30 10 0 6 9 10 20 10 11 0
20 5 20 10 0 6 7 10 16 10 19 0 44 24 44 42 0 8 9 20 20 28 11 8 20 22 20 32
0 10 5 18 10 18 6 0 10 9 10 19 0 11 5 23 10 26 6 3 10 26 10 51 0 24 5 44 10
44 6 0 10 33 10 80 0 47 4 80 10 80 6 0 10 48 10 124 0 73 -4 127 -10 131 -5
3 -10 42 -10 86 0 46 -4 79 -10 79 -5 0 -10 18 -10 40 0 22 -4 40 -10 40 -5 0
-10 14 -10 30 0 17 -4 30 -10 30 -5 0 -10 7 -10 15 0 9 -25 40 -55 70 -30 30
-61 55 -70 55 -8 0 -15 5 -15 10 0 6 -13 10 -30 10 -16 0 -30 5 -30 10 0 6
-33 10 -80 10 -47 0 -80 4 -80 10 0 6 -16 10 -35 10 -19 0 -35 -4 -35 -10z"/>
</g>
</svg>
